# xmcd
#
# Track frame offsets: 
#        150
#        13425
#        24675
#        35910
#        45175
#        62960
#        77195
#        87575
#        104290
#        118175
#        134725
#        157125
#        183922
#        208400
#        228802
#        244480
#        260775
#        283410
#
# Disc length: 4049 seconds
#
# Revision: 3
# Processed by: cddbd v1.5.2PL0 Copyright (c) Steve Scherf et al.
# Submitted via: ExactAudioCopy v0.99pb4
#
DISCID=200fcf12
DTITLE=Various Artist - American Folk Blues Festival '72
DYEAR=2002
DGENRE=Blues
TTITLE0=Bukka White - I'm Gettin' Ready
TTITLE1=Bukka White - Aberdeen Blues
TTITLE2=Big Joe Williams - My Baby Is Gone
TTITLE3=Big Joe Williams - My Boots and Shoes
TTITLE4=Robert Pete Williams - Look Here Woman
TTITLE5=Roosewelt Sykes - Drivin' Wheel
TTITLE6=Roosewelt Sykes - Sweet Home Chicago
TTITLE7=Memphis Slim, Michael Denis - Lonesome Traveller
TTITLE8=Memphis Slim, Michael Denis - Boogin' And  Bluesin'
TTITLE9=Johnny Young, W.D. Kent, Billy Davenport - Instrumental Boogie
TTITLE10=Big Mama Thornton and The Blues Band - Tell Me Baby
TTITLE11=Big Mama Thornton and The Blues Band - Ball 'n' Chain
TTITLE12=T-Bone Walker and The Blues Band - Shake It Baby
TTITLE13=The Blues Band: T- Bone Walker, Paul Lenart, Edward Taylor, P
TTITLE13=hillip Morrisson, Hartley Severns, Vinton Johnson - Goin' Bac
TTITLE13=k To Church
TTITLE14=Jimmy Rogers, Whispering Smith, W.D. Kent, Billy Davenport - 
TTITLE14=Tricky Woman
TTITLE15=Lightin' Slim, Whispering Smith - Winter Time Blues
TTITLE16=Jimmy Dawkins Chicago Blues Band: Jimmy Dawkins, Big Voice Od
TTITLE16=om, Jesse Williams, W.D. Kent, Billy Davenport, Roosewelt Syk
TTITLE16=es - Don't Ever Leave Me
TTITLE17=Jimmy Dawkins Chicago Blues Band: Jimmy Dawkins, Big Voice Od
TTITLE17=om, Jesse Williams, W.D. Kent, Billy Davenport, Roosewelt Syk
TTITLE17=es - Got My Mojo Workin'
EXTD=
EXTT0=Bukka White - Vocal and Guitar\n
EXTT1=Bukka White - Vocal and Guitar\n
EXTT2=Big Joe Williams - Vocal and Guitar\n\n
EXTT3=Big Joe Williams - Vocal and Guitar\n
EXTT4=Robert Pete Williams - Vocal and Guitar\n
EXTT5=Roosevelt Sykes - Vocal and Piano\n
EXTT6=Roosevelt Sykes - Vocal and Piano\n
EXTT7=Memphis Slim - Vocal and Piano\nMichel Denis - Drums\n
EXTT8=Memphis Slim - Vocal and Piano\nMichel Denis - Drums\n
EXTT9=Johnny Young - Electric Mandolin\nWD Kent - Bass\nBilly Davenpor
EXTT9=t - Drums\n
EXTT10=Big Mama Thornton - Vocal and Blues Harp\n& The Blues Band\n
EXTT11=Big Mama Thornton - Vocal and Blues Harp\n& The Blues Band\n
EXTT12=T-Bone Walker - Vocal and Piano\n& The Blues Band\n
EXTT13=T-Bone Walker - Piano\nPaul Lenart - Electric Guitar\nEdward Ta
EXTT13=ylor - Tenor Saxophone\nPhillip Morrison - Bass\nHartley Severn
EXTT13=s - Tenor, Baritone and \nSoprano Saxophone, Violin\nVinoton Jo
EXTT13=hnson - Drums\n
EXTT14=Jimmy Rogers - Vocal and Electric Guitar\nWhispering Smith - Blue
EXTT14=s Harp\nWD Kent - Bass\nBilly Davenport - Drums\n
EXTT15=Lightning Slim - Vocal and Guitar\nWhispering Smith - Blues Harp\n
EXTT16=Jimmy Dawkins - Electric Guitar\nBig Voice Odom - Vocal\nJesse 
EXTT16=Williams - 2nd Electric Guitar\nWD Kent - Bass\nBilly Davenport
EXTT16=Drums\nRoosevelt Sykes - Piano\n
EXTT17=Jimmy Dawkins - Electric Guitar\nBig Voice Odom - Vocal\nJesse 
EXTT17=Williams - 2nd Electric Guitar\nWD Kent - Bass\nBilly Davenport
EXTT17=Drums\nRoosevelt Sykes - Piano\n
PLAYORDER=
